<mxfile host="Electron" modified="2023-06-15T00:38:33.377Z" agent="Mozilla/5.0 (Macintosh; Intel Mac OS X 10_15_7) AppleWebKit/537.36 (KHTML, like Gecko) draw.io/21.4.0 Chrome/112.0.5615.204 Electron/24.5.1 Safari/537.36" etag="J6sEjunlZRc_r5QDdaeZ" version="21.4.0" type="device">
  <diagram id="pvypDlpsqlHo9MznYDgg" name="Page-1">
    <mxGraphModel dx="653" dy="447" grid="1" gridSize="10" guides="1" tooltips="1" connect="1" arrows="1" fold="1" page="1" pageScale="1" pageWidth="827" pageHeight="1169" math="1" shadow="0">
      <root>
        <mxCell id="0" />
        <mxCell id="1" parent="0" />
        <mxCell id="ubhvFjVo364s9dmxY7yh-25" value="object" style="rounded=1;whiteSpace=wrap;html=1;fillColor=#dae8fc;strokeColor=#6c8ebf;opacity=30;arcSize=5;fontFamily=SF Mono;" parent="1" vertex="1">
          <mxGeometry x="180" y="100" width="80" height="40" as="geometry" />
        </mxCell>
        <mxCell id="ubhvFjVo364s9dmxY7yh-24" value="object" style="rounded=1;whiteSpace=wrap;html=1;fillColor=#dae8fc;strokeColor=#6c8ebf;opacity=60;fontFamily=SF Mono;arcSize=5;" parent="1" vertex="1">
          <mxGeometry x="170" y="130" width="80" height="40" as="geometry" />
        </mxCell>
        <mxCell id="ubhvFjVo364s9dmxY7yh-2" value="&lt;font style=&quot;font-size: 14px;&quot;&gt;Object&lt;/font&gt;" style="rounded=1;whiteSpace=wrap;html=1;fillColor=#dae8fc;strokeColor=#6c8ebf;arcSize=5;fontFamily=SF Mono;" parent="1" vertex="1">
          <mxGeometry x="160" y="160" width="80" height="40" as="geometry" />
        </mxCell>
        <mxCell id="ubhvFjVo364s9dmxY7yh-3" value="&lt;font style=&quot;font-size: 14px;&quot;&gt;shape&lt;/font&gt;" style="rounded=1;whiteSpace=wrap;html=1;fillColor=#d5e8d4;strokeColor=#82b366;fontFamily=SF Mono;arcSize=5;" parent="1" vertex="1">
          <mxGeometry x="391" y="160" width="80" height="40" as="geometry" />
        </mxCell>
        <mxCell id="ubhvFjVo364s9dmxY7yh-4" value="" style="endArrow=classic;html=1;rounded=0;entryX=0;entryY=0.5;entryDx=0;entryDy=0;exitX=1;exitY=0.5;exitDx=0;exitDy=0;" parent="1" source="ubhvFjVo364s9dmxY7yh-2" target="ubhvFjVo364s9dmxY7yh-3" edge="1">
          <mxGeometry width="50" height="50" relative="1" as="geometry">
            <mxPoint x="250" y="180" as="sourcePoint" />
            <mxPoint x="667" y="360" as="targetPoint" />
          </mxGeometry>
        </mxCell>
        <mxCell id="ubhvFjVo364s9dmxY7yh-6" value="" style="endArrow=classic;html=1;rounded=0;exitX=0.5;exitY=1;exitDx=0;exitDy=0;" parent="1" source="ubhvFjVo364s9dmxY7yh-3" edge="1">
          <mxGeometry width="50" height="50" relative="1" as="geometry">
            <mxPoint x="457" y="320" as="sourcePoint" />
            <mxPoint x="431" y="280" as="targetPoint" />
          </mxGeometry>
        </mxCell>
        <mxCell id="ubhvFjVo364s9dmxY7yh-7" value="&lt;font style=&quot;&quot;&gt;&lt;span style=&quot;font-size: 16px;&quot;&gt;$$key&amp;nbsp;\rightarrow&amp;nbsp;idx$$&lt;/span&gt;&lt;/font&gt;" style="text;html=1;strokeColor=none;fillColor=none;align=center;verticalAlign=middle;whiteSpace=wrap;rounded=0;" parent="1" vertex="1">
          <mxGeometry x="427" y="220" width="130" height="30" as="geometry" />
        </mxCell>
        <mxCell id="ubhvFjVo364s9dmxY7yh-8" value="&lt;font style=&quot;font-size: 16px;&quot;&gt;field&lt;/font&gt;" style="text;html=1;strokeColor=none;fillColor=none;align=center;verticalAlign=middle;whiteSpace=wrap;rounded=0;fontFamily=SF Mono;" parent="1" vertex="1">
          <mxGeometry x="140" y="270" width="50" height="30" as="geometry" />
        </mxCell>
        <mxCell id="ubhvFjVo364s9dmxY7yh-9" value="idx" style="text;html=1;strokeColor=none;fillColor=none;align=center;verticalAlign=middle;whiteSpace=wrap;rounded=0;fontSize=16;fontFamily=SF Mono;" parent="1" vertex="1">
          <mxGeometry x="401" y="280" width="60" height="30" as="geometry" />
        </mxCell>
        <mxCell id="ubhvFjVo364s9dmxY7yh-10" value="" style="rounded=1;whiteSpace=wrap;html=1;fontSize=16;fillColor=#ffe6cc;strokeColor=#d79b00;arcSize=5;" parent="1" vertex="1">
          <mxGeometry x="291" y="380" width="40" height="40" as="geometry" />
        </mxCell>
        <mxCell id="ubhvFjVo364s9dmxY7yh-12" value="" style="rounded=0;whiteSpace=wrap;html=1;fontSize=16;fillColor=#ffe6cc;strokeColor=#d79b00;" parent="1" vertex="1">
          <mxGeometry x="331" y="380" width="40" height="40" as="geometry" />
        </mxCell>
        <mxCell id="ubhvFjVo364s9dmxY7yh-14" value="" style="rounded=0;whiteSpace=wrap;html=1;fontSize=16;fillColor=#ffe6cc;strokeColor=#d79b00;" parent="1" vertex="1">
          <mxGeometry x="371" y="380" width="40" height="40" as="geometry" />
        </mxCell>
        <mxCell id="ubhvFjVo364s9dmxY7yh-15" value="" style="rounded=0;whiteSpace=wrap;html=1;fontSize=16;fillColor=#ffe6cc;strokeColor=#d79b00;" parent="1" vertex="1">
          <mxGeometry x="411" y="380" width="40" height="40" as="geometry" />
        </mxCell>
        <mxCell id="ubhvFjVo364s9dmxY7yh-16" value="" style="rounded=1;whiteSpace=wrap;html=1;fontSize=16;fillColor=#ffe6cc;strokeColor=#d79b00;arcSize=5;" parent="1" vertex="1">
          <mxGeometry x="451" y="380" width="40" height="40" as="geometry" />
        </mxCell>
        <mxCell id="ubhvFjVo364s9dmxY7yh-17" value="" style="endArrow=classic;html=1;rounded=0;fontSize=16;exitX=0.5;exitY=1;exitDx=0;exitDy=0;entryX=0.5;entryY=0;entryDx=0;entryDy=0;" parent="1" source="ubhvFjVo364s9dmxY7yh-9" target="ubhvFjVo364s9dmxY7yh-15" edge="1">
          <mxGeometry width="50" height="50" relative="1" as="geometry">
            <mxPoint x="447" y="730" as="sourcePoint" />
            <mxPoint x="431" y="510" as="targetPoint" />
          </mxGeometry>
        </mxCell>
        <mxCell id="ubhvFjVo364s9dmxY7yh-18" value="" style="endArrow=classic;html=1;rounded=0;fontSize=16;exitX=0.5;exitY=1;exitDx=0;exitDy=0;entryX=0;entryY=0.5;entryDx=0;entryDy=0;" parent="1" source="ubhvFjVo364s9dmxY7yh-2" target="ubhvFjVo364s9dmxY7yh-10" edge="1">
          <mxGeometry width="50" height="50" relative="1" as="geometry">
            <mxPoint x="120" y="370" as="sourcePoint" />
            <mxPoint x="440" y="680" as="targetPoint" />
            <Array as="points">
              <mxPoint x="200" y="400" />
            </Array>
          </mxGeometry>
        </mxCell>
        <mxCell id="ubhvFjVo364s9dmxY7yh-19" value="&lt;font style=&quot;font-size: 16px;&quot;&gt;field&lt;/font&gt;" style="text;html=1;strokeColor=none;fillColor=none;align=center;verticalAlign=middle;whiteSpace=wrap;rounded=0;fontFamily=SF Mono;" parent="1" vertex="1">
          <mxGeometry x="260" y="146" width="106" height="30" as="geometry" />
        </mxCell>
        <mxCell id="ubhvFjVo364s9dmxY7yh-20" value="props" style="text;html=1;strokeColor=none;fillColor=none;align=center;verticalAlign=middle;whiteSpace=wrap;rounded=0;fontSize=16;fontFamily=SF Mono;" parent="1" vertex="1">
          <mxGeometry x="361" y="450" width="60" height="30" as="geometry" />
        </mxCell>
        <mxCell id="ubhvFjVo364s9dmxY7yh-21" value="" style="shape=curlyBracket;whiteSpace=wrap;html=1;rounded=1;fontSize=16;rotation=-90;" parent="1" vertex="1">
          <mxGeometry x="381" y="340" width="20" height="200" as="geometry" />
        </mxCell>
      </root>
    </mxGraphModel>
  </diagram>
</mxfile>
